<svg width="32" height="32" viewBox="0 0 32 32" fill="none" xmlns="http://www.w3.org/2000/svg">
<rect width="32" height="32" fill="#FF5959"/>
<path d="M4.5 4L6.5 28" stroke="white"/>
<path d="M25.5036 27.9753C25.5037 27.9753 25.5035 27.9762 25.5026 27.9779C25.5032 27.9762 25.5036 27.9753 25.5036 27.9753ZM25.4473 27.9545C25.4669 27.9736 25.4799 27.9887 25.4884 28C25.4799 28.0113 25.4669 28.0264 25.4473 28.0455C25.3695 28.1216 25.2279 28.2189 25.0004 28.3265C24.548 28.5404 23.8614 28.7462 22.973 28.9239C21.2044 29.2777 18.7388 29.5 16 29.5C13.2612 29.5 10.7956 29.2777 9.02699 28.9239C8.13855 28.7462 7.45199 28.5404 6.99959 28.3265C6.77212 28.2189 6.63049 28.1216 6.55265 28.0455C6.53312 28.0264 6.52011 28.0113 6.51157 28C6.52011 27.9887 6.53312 27.9736 6.55265 27.9545C6.63049 27.8784 6.77212 27.7811 6.99959 27.6735C7.45199 27.4596 8.13855 27.2538 9.02699 27.0761C10.7956 26.7223 13.2612 26.5 16 26.5C18.7388 26.5 21.2044 26.7223 22.973 27.0761C23.8614 27.2538 24.548 27.4596 25.0004 27.6735C25.2279 27.7811 25.3695 27.8784 25.4473 27.9545ZM6.49635 27.9753C6.49643 27.9753 6.49684 27.9762 6.49735 27.9779C6.49654 27.9762 6.49628 27.9753 6.49635 27.9753ZM6.49635 28.0247C6.49628 28.0247 6.49654 28.0238 6.49735 28.0221C6.49684 28.0238 6.49643 28.0247 6.49635 28.0247ZM25.5026 28.0221C25.5035 28.0238 25.5037 28.0247 25.5036 28.0247C25.5036 28.0247 25.5032 28.0238 25.5026 28.0221Z" fill="#D9D9D9" stroke="white"/>
<path d="M25.5 28L27 4" stroke="white"/>
<path d="M27.0136 3.93533C27.0137 3.93533 27.0131 3.93638 27.0117 3.93847C27.0128 3.93637 27.0135 3.93532 27.0136 3.93533ZM26.9373 3.99113C26.9412 3.99418 26.9449 3.99714 26.9485 4C26.9449 4.00286 26.9412 4.00582 26.9373 4.00887C26.8271 4.09482 26.6344 4.19926 26.3403 4.31118C25.7576 4.53293 24.8911 4.74193 23.8008 4.92081C21.6278 5.2773 18.6558 5.5 15.5 5.5C12.344 5.5 9.499 5.27727 7.45394 4.92161C6.42736 4.74307 5.62649 4.53506 5.09387 4.31606C4.82534 4.20564 4.65366 4.10385 4.55744 4.02208C4.54797 4.01403 4.53978 4.00667 4.53271 4C4.53978 3.99333 4.54797 3.98597 4.55744 3.97792C4.65366 3.89615 4.82534 3.79436 5.09387 3.68394C5.62649 3.46494 6.42736 3.25693 7.45394 3.07839C9.499 2.72273 12.344 2.5 15.5 2.5C18.6558 2.5 21.6278 2.7227 23.8008 3.07919C24.8911 3.25807 25.7576 3.46707 26.3403 3.68882C26.6344 3.80074 26.8271 3.90518 26.9373 3.99113ZM4.49095 3.9518C4.49103 3.9518 4.4916 3.95274 4.49242 3.95462C4.49128 3.95274 4.49086 3.95181 4.49095 3.9518ZM4.49095 4.0482C4.49086 4.04819 4.49128 4.04726 4.49242 4.04538C4.4916 4.04726 4.49103 4.0482 4.49095 4.0482ZM27.0117 4.06153C27.0131 4.06362 27.0137 4.06467 27.0136 4.06467C27.0135 4.06468 27.0128 4.06363 27.0117 4.06153Z" fill="#D9D9D9" stroke="white"/>
</svg>
